<mxfile host="app.diagrams.net" modified="2024-05-24T10:16:59.231Z" agent="Mozilla/5.0 (Macintosh; Intel Mac OS X 10_15_7) AppleWebKit/537.36 (KHTML, like Gecko) Chrome/125.0.0.0 Safari/537.36" etag="2CHEjli3rMUh5gjk3n4n" version="24.4.7" type="github">
  <diagram name="Page-1" id="_smpwjfVStMuyLhWGlpT">
    <mxGraphModel dx="2133" dy="754" grid="1" gridSize="10" guides="1" tooltips="1" connect="1" arrows="1" fold="1" page="1" pageScale="1" pageWidth="850" pageHeight="1100" math="0" shadow="0">
      <root>
        <mxCell id="0" />
        <mxCell id="1" parent="0" />
        <mxCell id="ByIBindtyxnftuuOT_Qi-2" value="VPC" style="sketch=0;outlineConnect=0;gradientColor=none;html=1;whiteSpace=wrap;fontSize=12;fontStyle=0;shape=mxgraph.aws4.group;grIcon=mxgraph.aws4.group_vpc;strokeColor=#879196;fillColor=none;verticalAlign=top;align=left;spacingLeft=30;fontColor=#879196;dashed=0;" vertex="1" parent="1">
          <mxGeometry x="-20" y="90" width="490" height="460" as="geometry" />
        </mxCell>
        <mxCell id="ByIBindtyxnftuuOT_Qi-44" style="edgeStyle=orthogonalEdgeStyle;rounded=0;orthogonalLoop=1;jettySize=auto;html=1;" edge="1" parent="1" source="ByIBindtyxnftuuOT_Qi-5" target="ByIBindtyxnftuuOT_Qi-43">
          <mxGeometry relative="1" as="geometry" />
        </mxCell>
        <mxCell id="ByIBindtyxnftuuOT_Qi-85" value="Worker Request" style="edgeLabel;html=1;align=center;verticalAlign=middle;resizable=0;points=[];" vertex="1" connectable="0" parent="ByIBindtyxnftuuOT_Qi-44">
          <mxGeometry x="-0.6237" y="2" relative="1" as="geometry">
            <mxPoint x="24" y="2" as="offset" />
          </mxGeometry>
        </mxCell>
        <mxCell id="ByIBindtyxnftuuOT_Qi-5" value="Workers" style="outlineConnect=0;dashed=0;verticalLabelPosition=bottom;verticalAlign=top;align=center;html=1;shape=mxgraph.aws3.lambda;fillColor=#F58534;gradientColor=none;" vertex="1" parent="1">
          <mxGeometry x="300" y="130" width="46.5" height="56.53" as="geometry" />
        </mxCell>
        <mxCell id="ByIBindtyxnftuuOT_Qi-38" style="edgeStyle=orthogonalEdgeStyle;rounded=0;orthogonalLoop=1;jettySize=auto;html=1;exitX=1;exitY=0.5;exitDx=0;exitDy=0;exitPerimeter=0;entryX=0.5;entryY=0;entryDx=0;entryDy=0;startArrow=classic;startFill=1;" edge="1" parent="1" source="ByIBindtyxnftuuOT_Qi-9" target="ByIBindtyxnftuuOT_Qi-23">
          <mxGeometry relative="1" as="geometry" />
        </mxCell>
        <mxCell id="ByIBindtyxnftuuOT_Qi-40" style="edgeStyle=orthogonalEdgeStyle;rounded=0;orthogonalLoop=1;jettySize=auto;html=1;startArrow=classic;startFill=1;" edge="1" parent="1" source="ByIBindtyxnftuuOT_Qi-9" target="ByIBindtyxnftuuOT_Qi-32">
          <mxGeometry relative="1" as="geometry" />
        </mxCell>
        <mxCell id="ByIBindtyxnftuuOT_Qi-83" value="Backup A-Z" style="edgeLabel;html=1;align=center;verticalAlign=middle;resizable=0;points=[];" vertex="1" connectable="0" parent="ByIBindtyxnftuuOT_Qi-40">
          <mxGeometry x="-0.0685" y="-1" relative="1" as="geometry">
            <mxPoint as="offset" />
          </mxGeometry>
        </mxCell>
        <mxCell id="ByIBindtyxnftuuOT_Qi-9" value="Database" style="outlineConnect=0;dashed=0;verticalLabelPosition=bottom;verticalAlign=top;align=center;html=1;shape=mxgraph.aws3.rds;fillColor=#2E73B8;gradientColor=none;" vertex="1" parent="1">
          <mxGeometry x="94" y="134.64000000000001" width="42" height="47.25" as="geometry" />
        </mxCell>
        <mxCell id="ByIBindtyxnftuuOT_Qi-24" style="edgeStyle=orthogonalEdgeStyle;rounded=0;orthogonalLoop=1;jettySize=auto;html=1;entryX=0.5;entryY=1;entryDx=0;entryDy=0;" edge="1" parent="1" source="ByIBindtyxnftuuOT_Qi-13" target="ByIBindtyxnftuuOT_Qi-21">
          <mxGeometry relative="1" as="geometry" />
        </mxCell>
        <mxCell id="ByIBindtyxnftuuOT_Qi-13" value="K8s Proxy and Manager" style="aspect=fixed;sketch=0;html=1;dashed=0;whitespace=wrap;verticalLabelPosition=bottom;verticalAlign=top;fillColor=#2875E2;strokeColor=#ffffff;points=[[0.005,0.63,0],[0.1,0.2,0],[0.9,0.2,0],[0.5,0,0],[0.995,0.63,0],[0.72,0.99,0],[0.5,1,0],[0.28,0.99,0]];shape=mxgraph.kubernetes.icon2;prIcon=k_proxy" vertex="1" parent="1">
          <mxGeometry x="190" y="430" width="50" height="48" as="geometry" />
        </mxCell>
        <mxCell id="ByIBindtyxnftuuOT_Qi-14" value="EC2 Backend" style="points=[[0,0],[0.25,0],[0.5,0],[0.75,0],[1,0],[1,0.25],[1,0.5],[1,0.75],[1,1],[0.75,1],[0.5,1],[0.25,1],[0,1],[0,0.75],[0,0.5],[0,0.25]];outlineConnect=0;gradientColor=none;html=1;whiteSpace=wrap;fontSize=12;fontStyle=0;container=1;pointerEvents=0;collapsible=0;recursiveResize=0;shape=mxgraph.aws4.group;grIcon=mxgraph.aws4.group_ec2_instance_contents;strokeColor=#D86613;fillColor=none;verticalAlign=top;align=left;spacingLeft=30;fontColor=#D86613;dashed=0;" vertex="1" parent="1">
          <mxGeometry x="60" y="290" width="110" height="108" as="geometry" />
        </mxCell>
        <mxCell id="ByIBindtyxnftuuOT_Qi-15" value="Node" style="outlineConnect=0;dashed=0;verticalLabelPosition=bottom;verticalAlign=top;align=center;html=1;shape=mxgraph.aws3.ec2_compute_container;fillColor=#F58534;gradientColor=none;" vertex="1" parent="ByIBindtyxnftuuOT_Qi-14">
          <mxGeometry x="25" y="43.25" width="60" height="34.5" as="geometry" />
        </mxCell>
        <mxCell id="ByIBindtyxnftuuOT_Qi-20" style="edgeStyle=orthogonalEdgeStyle;rounded=0;orthogonalLoop=1;jettySize=auto;html=1;entryX=0.5;entryY=1;entryDx=0;entryDy=0;" edge="1" parent="1" source="ByIBindtyxnftuuOT_Qi-13" target="ByIBindtyxnftuuOT_Qi-14">
          <mxGeometry relative="1" as="geometry" />
        </mxCell>
        <mxCell id="ByIBindtyxnftuuOT_Qi-21" value="EC2 Backend" style="points=[[0,0],[0.25,0],[0.5,0],[0.75,0],[1,0],[1,0.25],[1,0.5],[1,0.75],[1,1],[0.75,1],[0.5,1],[0.25,1],[0,1],[0,0.75],[0,0.5],[0,0.25]];outlineConnect=0;gradientColor=none;html=1;whiteSpace=wrap;fontSize=12;fontStyle=0;container=1;pointerEvents=0;collapsible=0;recursiveResize=0;shape=mxgraph.aws4.group;grIcon=mxgraph.aws4.group_ec2_instance_contents;strokeColor=#D86613;fillColor=none;verticalAlign=top;align=left;spacingLeft=30;fontColor=#D86613;dashed=0;" vertex="1" parent="1">
          <mxGeometry x="268.25" y="290" width="110" height="108" as="geometry" />
        </mxCell>
        <mxCell id="ByIBindtyxnftuuOT_Qi-22" value="Node" style="outlineConnect=0;dashed=0;verticalLabelPosition=bottom;verticalAlign=top;align=center;html=1;shape=mxgraph.aws3.ec2_compute_container;fillColor=#F58534;gradientColor=none;" vertex="1" parent="ByIBindtyxnftuuOT_Qi-21">
          <mxGeometry x="25" y="43.25" width="60" height="34.5" as="geometry" />
        </mxCell>
        <mxCell id="ByIBindtyxnftuuOT_Qi-23" value="Manual Scaling" style="swimlane;horizontal=0;whiteSpace=wrap;html=1;" vertex="1" parent="1">
          <mxGeometry y="270" width="440" height="150" as="geometry" />
        </mxCell>
        <mxCell id="ByIBindtyxnftuuOT_Qi-30" value="VPC" style="sketch=0;outlineConnect=0;gradientColor=none;html=1;whiteSpace=wrap;fontSize=12;fontStyle=0;shape=mxgraph.aws4.group;grIcon=mxgraph.aws4.group_vpc;strokeColor=#879196;fillColor=none;verticalAlign=top;align=left;spacingLeft=30;fontColor=#879196;dashed=0;" vertex="1" parent="1">
          <mxGeometry x="-290" y="250" width="90" height="140" as="geometry" />
        </mxCell>
        <mxCell id="ByIBindtyxnftuuOT_Qi-35" style="edgeStyle=orthogonalEdgeStyle;rounded=0;orthogonalLoop=1;jettySize=auto;html=1;startArrow=classic;startFill=1;" edge="1" parent="1" source="ByIBindtyxnftuuOT_Qi-31" target="ByIBindtyxnftuuOT_Qi-2">
          <mxGeometry relative="1" as="geometry" />
        </mxCell>
        <mxCell id="ByIBindtyxnftuuOT_Qi-31" value="Peering" style="outlineConnect=0;dashed=0;verticalLabelPosition=bottom;verticalAlign=top;align=center;html=1;shape=mxgraph.aws3.vpc_peering;fillColor=#F58534;gradientColor=none;" vertex="1" parent="1">
          <mxGeometry x="-130" y="299.43" width="39.42" height="41.13" as="geometry" />
        </mxCell>
        <mxCell id="ByIBindtyxnftuuOT_Qi-32" value="Multi Clster A-Z" style="sketch=0;outlineConnect=0;fontColor=#232F3E;gradientColor=none;fillColor=#C925D1;strokeColor=none;dashed=0;verticalLabelPosition=bottom;verticalAlign=top;align=center;html=1;fontSize=12;fontStyle=0;aspect=fixed;pointerEvents=1;shape=mxgraph.aws4.rds_multi_az_db_cluster;" vertex="1" parent="1">
          <mxGeometry x="-269" y="290" width="48" height="48" as="geometry" />
        </mxCell>
        <mxCell id="ByIBindtyxnftuuOT_Qi-36" style="edgeStyle=orthogonalEdgeStyle;rounded=0;orthogonalLoop=1;jettySize=auto;html=1;entryX=0;entryY=0.5;entryDx=0;entryDy=0;entryPerimeter=0;startArrow=classic;startFill=1;" edge="1" parent="1" source="ByIBindtyxnftuuOT_Qi-30" target="ByIBindtyxnftuuOT_Qi-31">
          <mxGeometry relative="1" as="geometry" />
        </mxCell>
        <mxCell id="ByIBindtyxnftuuOT_Qi-39" style="edgeStyle=orthogonalEdgeStyle;rounded=0;orthogonalLoop=1;jettySize=auto;html=1;entryX=0;entryY=0.5;entryDx=0;entryDy=0;entryPerimeter=0;" edge="1" parent="1" source="ByIBindtyxnftuuOT_Qi-23" target="ByIBindtyxnftuuOT_Qi-5">
          <mxGeometry relative="1" as="geometry" />
        </mxCell>
        <mxCell id="ByIBindtyxnftuuOT_Qi-66" value="Async" style="edgeLabel;html=1;align=center;verticalAlign=middle;resizable=0;points=[];" vertex="1" connectable="0" parent="ByIBindtyxnftuuOT_Qi-39">
          <mxGeometry x="0.5586" y="3" relative="1" as="geometry">
            <mxPoint as="offset" />
          </mxGeometry>
        </mxCell>
        <mxCell id="ByIBindtyxnftuuOT_Qi-64" style="edgeStyle=orthogonalEdgeStyle;rounded=0;orthogonalLoop=1;jettySize=auto;html=1;entryX=1;entryY=0.25;entryDx=0;entryDy=0;" edge="1" parent="1" source="ByIBindtyxnftuuOT_Qi-43" target="ByIBindtyxnftuuOT_Qi-23">
          <mxGeometry relative="1" as="geometry">
            <Array as="points">
              <mxPoint x="460" y="158" />
              <mxPoint x="460" y="307" />
            </Array>
          </mxGeometry>
        </mxCell>
        <mxCell id="ByIBindtyxnftuuOT_Qi-65" value="Direct Request" style="edgeLabel;html=1;align=center;verticalAlign=middle;resizable=0;points=[];" vertex="1" connectable="0" parent="ByIBindtyxnftuuOT_Qi-64">
          <mxGeometry x="0.1686" relative="1" as="geometry">
            <mxPoint as="offset" />
          </mxGeometry>
        </mxCell>
        <mxCell id="ByIBindtyxnftuuOT_Qi-43" value="3-Party Support" style="image;points=[];aspect=fixed;html=1;align=center;shadow=0;dashed=0;image=img/lib/allied_telesis/computer_and_terminals/Server_Desktop.svg;" vertex="1" parent="1">
          <mxGeometry x="540" y="131.26999999999998" width="42.599999999999994" height="54" as="geometry" />
        </mxCell>
        <mxCell id="ByIBindtyxnftuuOT_Qi-45" value="Frontend Assets" style="sketch=0;outlineConnect=0;fontColor=#232F3E;gradientColor=none;strokeColor=#ffffff;fillColor=#232F3E;dashed=0;verticalLabelPosition=middle;verticalAlign=bottom;align=center;html=1;whiteSpace=wrap;fontSize=10;fontStyle=1;spacing=3;shape=mxgraph.aws4.productIcon;prIcon=mxgraph.aws4.cloudfront;" vertex="1" parent="1">
          <mxGeometry x="320" y="607.5" width="65" height="90" as="geometry" />
        </mxCell>
        <mxCell id="ByIBindtyxnftuuOT_Qi-48" style="edgeStyle=orthogonalEdgeStyle;rounded=0;orthogonalLoop=1;jettySize=auto;html=1;" edge="1" parent="1" source="ByIBindtyxnftuuOT_Qi-46" target="ByIBindtyxnftuuOT_Qi-45">
          <mxGeometry relative="1" as="geometry" />
        </mxCell>
        <mxCell id="ByIBindtyxnftuuOT_Qi-77" value="App Access" style="edgeLabel;html=1;align=center;verticalAlign=middle;resizable=0;points=[];" vertex="1" connectable="0" parent="ByIBindtyxnftuuOT_Qi-48">
          <mxGeometry x="-0.1625" y="1" relative="1" as="geometry">
            <mxPoint as="offset" />
          </mxGeometry>
        </mxCell>
        <mxCell id="ByIBindtyxnftuuOT_Qi-46" value="Client" style="image;points=[];aspect=fixed;html=1;align=center;shadow=0;dashed=0;image=img/lib/allied_telesis/computer_and_terminals/Personal_Computer.svg;" vertex="1" parent="1">
          <mxGeometry x="192.2" y="621.6" width="45.6" height="61.800000000000004" as="geometry" />
        </mxCell>
        <mxCell id="ByIBindtyxnftuuOT_Qi-49" style="edgeStyle=orthogonalEdgeStyle;rounded=0;orthogonalLoop=1;jettySize=auto;html=1;entryX=0.5;entryY=1;entryDx=0;entryDy=0;entryPerimeter=0;startArrow=classic;startFill=1;" edge="1" parent="1" source="ByIBindtyxnftuuOT_Qi-46" target="ByIBindtyxnftuuOT_Qi-13">
          <mxGeometry relative="1" as="geometry" />
        </mxCell>
        <mxCell id="ByIBindtyxnftuuOT_Qi-73" value="Http" style="edgeLabel;html=1;align=center;verticalAlign=middle;resizable=0;points=[];" vertex="1" connectable="0" parent="ByIBindtyxnftuuOT_Qi-49">
          <mxGeometry x="0.1922" y="-1" relative="1" as="geometry">
            <mxPoint as="offset" />
          </mxGeometry>
        </mxCell>
        <mxCell id="ByIBindtyxnftuuOT_Qi-50" value="Backend Repo" style="dashed=0;outlineConnect=0;html=1;align=center;labelPosition=center;verticalLabelPosition=bottom;verticalAlign=top;shape=mxgraph.weblogos.github" vertex="1" parent="1">
          <mxGeometry x="770" y="313.06" width="65" height="65" as="geometry" />
        </mxCell>
        <mxCell id="ByIBindtyxnftuuOT_Qi-51" value="Frontend Repo" style="dashed=0;outlineConnect=0;html=1;align=center;labelPosition=center;verticalLabelPosition=bottom;verticalAlign=top;shape=mxgraph.weblogos.github" vertex="1" parent="1">
          <mxGeometry x="610" y="622.5" width="60" height="60" as="geometry" />
        </mxCell>
        <mxCell id="ByIBindtyxnftuuOT_Qi-54" style="edgeStyle=orthogonalEdgeStyle;rounded=0;orthogonalLoop=1;jettySize=auto;html=1;startArrow=classic;startFill=1;endArrow=none;endFill=0;" edge="1" parent="1" source="ByIBindtyxnftuuOT_Qi-53" target="ByIBindtyxnftuuOT_Qi-51">
          <mxGeometry relative="1" as="geometry" />
        </mxCell>
        <mxCell id="ByIBindtyxnftuuOT_Qi-79" value="Pipeline" style="edgeLabel;html=1;align=center;verticalAlign=middle;resizable=0;points=[];" vertex="1" connectable="0" parent="ByIBindtyxnftuuOT_Qi-54">
          <mxGeometry x="-0.2138" relative="1" as="geometry">
            <mxPoint x="15" as="offset" />
          </mxGeometry>
        </mxCell>
        <mxCell id="ByIBindtyxnftuuOT_Qi-55" style="edgeStyle=orthogonalEdgeStyle;rounded=0;orthogonalLoop=1;jettySize=auto;html=1;" edge="1" parent="1" source="ByIBindtyxnftuuOT_Qi-53" target="ByIBindtyxnftuuOT_Qi-45">
          <mxGeometry relative="1" as="geometry" />
        </mxCell>
        <mxCell id="ByIBindtyxnftuuOT_Qi-78" value="Deploy" style="edgeLabel;html=1;align=center;verticalAlign=middle;resizable=0;points=[];" vertex="1" connectable="0" parent="ByIBindtyxnftuuOT_Qi-55">
          <mxGeometry x="-0.0704" y="-4" relative="1" as="geometry">
            <mxPoint as="offset" />
          </mxGeometry>
        </mxCell>
        <mxCell id="ByIBindtyxnftuuOT_Qi-53" value="Frontend CI/CD" style="outlineConnect=0;dashed=0;verticalLabelPosition=bottom;verticalAlign=top;align=center;html=1;shape=mxgraph.aws3.codepipeline;fillColor=#759C3E;gradientColor=none;" vertex="1" parent="1">
          <mxGeometry x="492.5" y="620.4" width="47.5" height="63" as="geometry" />
        </mxCell>
        <mxCell id="ByIBindtyxnftuuOT_Qi-56" value="Backend Container Service" style="sketch=0;points=[[0,0,0],[0.25,0,0],[0.5,0,0],[0.75,0,0],[1,0,0],[0,1,0],[0.25,1,0],[0.5,1,0],[0.75,1,0],[1,1,0],[0,0.25,0],[0,0.5,0],[0,0.75,0],[1,0.25,0],[1,0.5,0],[1,0.75,0]];outlineConnect=0;fontColor=#232F3E;fillColor=#ED7100;strokeColor=#ffffff;dashed=0;verticalLabelPosition=bottom;verticalAlign=top;align=center;html=1;fontSize=12;fontStyle=0;aspect=fixed;shape=mxgraph.aws4.resourceIcon;resIcon=mxgraph.aws4.ecr;" vertex="1" parent="1">
          <mxGeometry x="510" y="316.06" width="58" height="58" as="geometry" />
        </mxCell>
        <mxCell id="ByIBindtyxnftuuOT_Qi-59" style="edgeStyle=orthogonalEdgeStyle;rounded=0;orthogonalLoop=1;jettySize=auto;html=1;" edge="1" parent="1" source="ByIBindtyxnftuuOT_Qi-58" target="ByIBindtyxnftuuOT_Qi-56">
          <mxGeometry relative="1" as="geometry" />
        </mxCell>
        <mxCell id="ByIBindtyxnftuuOT_Qi-58" value="Backend CI/CD" style="outlineConnect=0;dashed=0;verticalLabelPosition=bottom;verticalAlign=top;align=center;html=1;shape=mxgraph.aws3.codepipeline;fillColor=#759C3E;gradientColor=none;" vertex="1" parent="1">
          <mxGeometry x="650" y="312.56" width="47.5" height="65.5" as="geometry" />
        </mxCell>
        <mxCell id="ByIBindtyxnftuuOT_Qi-60" style="edgeStyle=orthogonalEdgeStyle;rounded=0;orthogonalLoop=1;jettySize=auto;html=1;entryX=1;entryY=0.5;entryDx=0;entryDy=0;entryPerimeter=0;" edge="1" parent="1" source="ByIBindtyxnftuuOT_Qi-50" target="ByIBindtyxnftuuOT_Qi-58">
          <mxGeometry relative="1" as="geometry" />
        </mxCell>
        <mxCell id="ByIBindtyxnftuuOT_Qi-80" value="Pipile" style="edgeLabel;html=1;align=center;verticalAlign=middle;resizable=0;points=[];" vertex="1" connectable="0" parent="ByIBindtyxnftuuOT_Qi-60">
          <mxGeometry x="0.0443" y="-2" relative="1" as="geometry">
            <mxPoint as="offset" />
          </mxGeometry>
        </mxCell>
        <mxCell id="ByIBindtyxnftuuOT_Qi-62" style="edgeStyle=orthogonalEdgeStyle;rounded=0;orthogonalLoop=1;jettySize=auto;html=1;entryX=0.995;entryY=0.63;entryDx=0;entryDy=0;entryPerimeter=0;startArrow=classic;startFill=1;endArrow=none;endFill=0;" edge="1" parent="1" source="ByIBindtyxnftuuOT_Qi-56" target="ByIBindtyxnftuuOT_Qi-13">
          <mxGeometry relative="1" as="geometry">
            <Array as="points">
              <mxPoint x="450" y="345" />
              <mxPoint x="450" y="460" />
            </Array>
          </mxGeometry>
        </mxCell>
        <mxCell id="ByIBindtyxnftuuOT_Qi-82" value="Fetch Image" style="edgeLabel;html=1;align=center;verticalAlign=middle;resizable=0;points=[];" vertex="1" connectable="0" parent="ByIBindtyxnftuuOT_Qi-62">
          <mxGeometry x="-0.323" y="2" relative="1" as="geometry">
            <mxPoint y="25" as="offset" />
          </mxGeometry>
        </mxCell>
        <mxCell id="ByIBindtyxnftuuOT_Qi-63" style="edgeStyle=orthogonalEdgeStyle;rounded=0;orthogonalLoop=1;jettySize=auto;html=1;entryX=0.995;entryY=0.63;entryDx=0;entryDy=0;entryPerimeter=0;exitX=0.5;exitY=1;exitDx=0;exitDy=0;exitPerimeter=0;" edge="1" parent="1" source="ByIBindtyxnftuuOT_Qi-58" target="ByIBindtyxnftuuOT_Qi-13">
          <mxGeometry relative="1" as="geometry" />
        </mxCell>
        <mxCell id="ByIBindtyxnftuuOT_Qi-81" value="Trigger to deploy" style="edgeLabel;html=1;align=center;verticalAlign=middle;resizable=0;points=[];" vertex="1" connectable="0" parent="ByIBindtyxnftuuOT_Qi-63">
          <mxGeometry x="-0.271" y="2" relative="1" as="geometry">
            <mxPoint as="offset" />
          </mxGeometry>
        </mxCell>
        <mxCell id="ByIBindtyxnftuuOT_Qi-70" style="edgeStyle=orthogonalEdgeStyle;rounded=0;orthogonalLoop=1;jettySize=auto;html=1;" edge="1" parent="1" source="ByIBindtyxnftuuOT_Qi-69">
          <mxGeometry relative="1" as="geometry">
            <mxPoint x="383" y="420" as="targetPoint" />
          </mxGeometry>
        </mxCell>
        <mxCell id="ByIBindtyxnftuuOT_Qi-69" value="SNS Push" style="outlineConnect=0;dashed=0;verticalLabelPosition=bottom;verticalAlign=top;align=center;html=1;shape=mxgraph.aws3.sns;fillColor=#D9A741;gradientColor=none;" vertex="1" parent="1">
          <mxGeometry x="360" y="478" width="46.5" height="46.5" as="geometry" />
        </mxCell>
        <mxCell id="ByIBindtyxnftuuOT_Qi-71" style="edgeStyle=orthogonalEdgeStyle;rounded=0;orthogonalLoop=1;jettySize=auto;html=1;entryX=0.829;entryY=0.298;entryDx=0;entryDy=0;entryPerimeter=0;exitX=0.71;exitY=1;exitDx=0;exitDy=0;exitPerimeter=0;" edge="1" parent="1" source="ByIBindtyxnftuuOT_Qi-69" target="ByIBindtyxnftuuOT_Qi-46">
          <mxGeometry relative="1" as="geometry" />
        </mxCell>
        <mxCell id="ByIBindtyxnftuuOT_Qi-72" value="Realtime Msg" style="edgeLabel;html=1;align=center;verticalAlign=middle;resizable=0;points=[];" vertex="1" connectable="0" parent="ByIBindtyxnftuuOT_Qi-71">
          <mxGeometry x="-0.4468" y="-2" relative="1" as="geometry">
            <mxPoint x="-55" as="offset" />
          </mxGeometry>
        </mxCell>
      </root>
    </mxGraphModel>
  </diagram>
</mxfile>
